<svg width="331" height="590" viewBox="0 0 331 590" fill="none" xmlns="http://www.w3.org/2000/svg">
<path d="M55.7154 562.993C9.2154 530.805 -10.7846 467.297 5.71537 405.529C22.2154 343.761 68.2153 302.873 68.2153 302.873C65.2153 318.097 64.2153 327.667 65.7153 338.542C68.782 360.774 72.7153 369.425 72.7153 376.82C78.5487 375.66 86.1725 360.649 93.2153 349.416C111.215 320.707 127.715 263.289 131.215 239.8C134.015 221.009 126.382 180.062 122.215 161.938C154.049 192.822 220.215 263.115 230.215 297.218C240.215 331.321 234.382 374.935 230.215 392.48C237.882 384.36 258.715 372.47 262.215 353.331C264.633 340.11 262.882 322.012 258.715 313.747C275.715 323.317 290.215 325.492 309.215 368.12C328.215 410.749 332.95 485.515 317.715 510.795C290.715 555.599 254.465 575.173 214.215 585.178C186.215 592.137 102.215 595.182 55.7154 562.993Z" fill="#FF6816"/>
<path d="M110.518 562.342C85.6618 546 76.1338 515.983 82.762 491.97C83.4525 489.747 84.9896 483.615 88.5618 477.962C100.575 458.952 118.248 445.842 124.603 437.607C141.588 415.595 141.315 411.914 142.831 405.589C147.387 386.579 145.73 390.247 145.73 382.91C149.045 384.355 158.407 389.247 169.344 397.251C183.014 407.257 201.026 432.699 203.728 440.608C208.285 453.949 207.18 461.509 206.627 468.29C210.356 466.289 212.013 466.623 216.984 459.619C222.069 452.455 220.712 450.28 221.541 446.278C224.855 448.613 229.826 456.284 235.212 466.956C241.79 479.993 249.711 510.314 245.568 522.987C241.426 535.661 230.241 558.34 200.413 571.681C170.586 585.022 133.923 577.731 110.518 562.342Z" fill="#FFBA1E"/>
<path d="M50.5595 256.055C48.9442 251.127 52.2583 242.171 54.1173 238.309C57.2874 241.15 64.0892 247.898 65.9347 252.162C67.7803 256.426 64.9074 264.11 63.2402 267.419C59.6864 265.685 52.1749 260.983 50.5595 256.055Z" fill="#FF6816"/>
<path d="M74.1002 210.22C74.4538 205.047 80.889 197.991 84.0625 195.11C85.9335 198.933 89.7029 207.742 89.8119 212.387C89.9208 217.032 84.3723 223.074 81.5844 225.515C78.9423 222.573 73.7465 215.394 74.1002 210.22Z" fill="#FF6816"/>
<path d="M243.551 154.37C245.843 149.65 254.878 144.479 259.109 142.484C259.532 146.426 259.969 155.393 258.335 159.722C256.701 164.05 248.925 168.471 245.242 170.14C243.723 166.85 241.259 159.09 243.551 154.37Z" fill="#FF6816"/>
<path d="M152.096 78.3136C151.795 73.1961 157.339 65.1175 160.149 61.7179C162.503 65.1064 167.387 73.0122 168.083 77.528C168.779 82.0438 163.994 88.9691 161.514 91.8674C158.5 89.4817 152.396 83.4311 152.096 78.3136Z" fill="#FF6816"/>
<path d="M238.653 260.21C238.596 255.086 244.519 247.214 247.488 243.918C249.68 247.388 254.183 255.463 254.665 260C255.146 264.537 250.036 271.284 247.421 274.091C244.522 271.599 238.711 265.334 238.653 260.21Z" fill="#FF6816"/>
<circle cx="327" cy="293" r="4" fill="#FFBA1E"/>
<circle cx="235" cy="199" r="4" fill="#FFBA1E"/>
<circle cx="251" cy="214" r="4" fill="#FFBA1E"/>
<circle cx="86" cy="297" r="4" fill="#FFBA1E"/>
<circle cx="109" cy="113" r="4" fill="#FFBA1E"/>
<circle cx="25" cy="316" r="4" fill="#FFBA1E"/>
<circle cx="212" cy="214" r="4" fill="#FFBA1E"/>
<circle cx="294" cy="152" r="4" fill="#FFBA1E"/>
<circle cx="306" cy="324" r="4" fill="#FFBA1E"/>
<circle cx="72" cy="17" r="4" fill="#FFBA1E"/>
<circle cx="122" cy="4" r="4" fill="#FFBA1E"/>
<circle cx="96" cy="97" r="4" fill="#FFBA1E"/>
<circle cx="144" cy="113" r="4" fill="#FFBA1E"/>
</svg>
