<svg width="104" height="167" viewBox="0 0 104 167" fill="none" xmlns="http://www.w3.org/2000/svg">
<path d="M1.69924 123.232C-1.61741 103.609 0.314324 94.9746 4.11396 83.4625C8.55614 70.0037 21.5 51.909 24.3977 48.1414C28.0198 43.4319 39.8519 24.8556 42.7496 20.1461C45.0677 16.3785 49.8328 5.14555 51.9256 0C56.5135 9.5934 66.8969 30.507 71.7263 37.4142C77.7631 46.0483 85.0073 56.2522 94.6662 73.2587C104.325 90.2651 105.113 107.795 101.91 123.232C98.9665 137.419 86.6976 155.936 71.7263 163.262C59.7166 169.139 36.7128 166.663 25.8465 159.599C14.9802 152.535 3.74922 135.36 1.69924 123.232Z" fill="#FF6816"/>
<path d="M27.8066 138.645C26.2322 128.989 27.1492 124.739 28.9528 119.074C31.0615 112.451 37.2057 103.546 38.5812 101.692C40.3005 99.374 45.9171 90.2321 47.2925 87.9144C48.3929 86.0603 50.6548 80.5323 51.6482 78C53.826 82.7212 58.7548 93.0133 61.0473 96.4125C63.9129 100.662 67.3516 105.683 71.9365 114.052C76.5214 122.422 76.8956 131.049 75.3752 138.645C73.9778 145.627 68.1539 154.74 61.0473 158.346C55.3465 161.238 44.427 160.019 39.2689 156.543C34.1109 153.066 28.7797 144.614 27.8066 138.645Z" fill="#FFBA1E"/>
</svg>
