<svg width="198" height="294" viewBox="0 0 198 294" fill="none" xmlns="http://www.w3.org/2000/svg">
<path d="M3.24212 217.002C-3.08601 182.448 0.599726 167.244 7.84939 146.972C16.325 123.272 41.0218 91.4082 46.5505 84.7738C53.4614 76.4807 76.037 43.7691 81.5657 35.476C84.5515 30.9974 89.6647 20.5281 93.9008 11.4098C96.0239 6.83981 102.535 6.63911 104.902 11.0876C114.767 29.6256 129.336 55.9616 136.853 65.8839C148.371 81.0879 162.193 99.0563 180.622 129.004C199.051 158.951 200.555 189.819 194.444 217.002C188.827 241.986 165.418 274.593 136.853 287.494C113.939 297.842 70.0476 293.483 49.3148 281.043C28.5821 268.604 7.15346 238.36 3.24212 217.002Z" fill="#2AAAE0"/>
<path d="M18.5377 193.21C16.8564 172.312 30.0127 146.856 33.1638 141.554C36.3148 136.253 47.6896 124.967 47.9806 128.583C48.5523 135.689 39.9361 160.636 37.4579 173.694C34.8192 187.597 40.4823 213.139 47.9806 228.52C55.479 243.902 83.7695 269.149 78.5239 269.571C76.4504 269.738 69.0531 271.174 50.358 256.693C31.6628 242.213 20.0904 212.509 18.5377 193.21Z" fill="white" fill-opacity="0.28"/>
</svg>
