<svg width="201" height="294" viewBox="0 0 201 294" fill="none" xmlns="http://www.w3.org/2000/svg">
<path d="M35.9702 269C5.97022 244.5 -5.52976 199.5 2.47024 163.5C3.30359 160.167 5.15888 150.974 9.4703 142.5C23.9703 114 45.3007 94.3462 52.9703 82C73.4703 49 73.1405 43.4817 74.9703 34C80.4703 5.5 78.4703 11 78.4703 0C82.4703 2.16667 93.7703 9.5 106.97 21.5C123.47 36.5 145.209 74.6418 148.47 86.5C153.97 106.5 152.637 117.833 151.97 128C156.47 125 158.47 125.5 164.47 115C170.607 104.26 168.97 101 169.97 95C173.97 98.5 179.97 110 186.47 126C194.41 145.544 203.97 191 198.97 210C193.97 229 180.47 263 144.47 283C108.47 303 64.2195 292.07 35.9702 269Z" fill="#FF6816"/>
<path d="M137.785 271.001C155.454 257.977 162.227 234.055 157.515 214.917C157.025 213.145 155.932 208.258 153.393 203.753C144.853 188.603 132.29 178.155 127.773 171.591C115.699 154.049 115.894 151.115 114.816 146.075C111.577 130.924 112.755 133.848 112.755 128C110.399 129.152 103.744 133.05 95.9694 139.429C86.2517 147.404 73.4483 167.68 71.5278 173.984C68.2885 184.616 69.0738 190.641 69.4664 196.045C66.8162 194.45 65.6383 194.716 62.1045 189.134C58.4902 183.425 59.4542 181.692 58.8652 178.502C56.5094 180.363 52.9757 186.476 49.1474 194.982C44.4713 205.372 38.8407 229.536 41.7855 239.637C44.7303 249.737 52.6812 267.812 73.8836 278.444C95.086 289.076 121.148 283.265 137.785 271.001Z" fill="#FFBA1E"/>
<path d="M159.176 57.6383C160.271 51.8511 167.849 44.1348 171.502 41C172.871 45.3404 175.473 55.3234 174.925 60.5319C174.378 65.7404 167.849 72.3475 164.654 75C162.371 71.6241 158.08 63.4255 159.176 57.6383Z" fill="#FF6816"/>
</svg>
